# xmcd
#
# Track frame offsets: 
#        150
#        20109
#        43300
#        65138
#        82451
#        105617
#        127766
#        151621
#        172084
#        194655
#
# Disc length: 2832 seconds
#
# Revision: 4
# Processed by: cddbd v1.5.2PL0 Copyright (c) Steve Scherf et al.
# Submitted via: ExactAudioCopyFreeDBPlugin 1.0
#
DISCID=910b0e0a
DTITLE=熊天平  - 雪候鳥
DYEAR=1997
DGENRE=Blues
TTITLE0=Mr.Moon
TTITLE1=雪候鳥
TTITLE2=大雨帶我逃亡
TTITLE3=順其自然
TTITLE4=迷思左岸
TTITLE5=月亮森林
TTITLE6=你的晴天我的雨天
TTITLE7=心有靈犀
TTITLE8=藏書人
TTITLE9=夢田農夫
EXTD=nothing YEAR: 1997
EXTT0=
EXTT1=
EXTT2=
EXTT3=
EXTT4=
EXTT5=
EXTT6=
EXTT7=
EXTT8=
EXTT9=
PLAYORDER=
